PathFileType  4	(X/Y/Z) C:\Users\antoi\Documents\MyRepositories\mobilecap\ResultsAnalysis
DataRate	CameraRate	NumFrames	NumMarkers	Units	OrigDataRate	OrigDataStartFrame	OrigNumFrames
100.0	100.0	4	55	mm	100.0	601	800
Frame#	Time	r_knee			r_shank_antsup			r_ankle			r_calc			r_5meta			r_toe			L_knee			L_shank_antsup			L_ankle			L_calc			L_5meta			L_toe			r_mknee			r_mankle			L_mknee			L_mankle			r_sh2			r_sh3			r_sh4			L_sh2			L_sh3			r_thigh1			r_thigh2			r_thigh3			r_thigh4			r_thigh5			L_thigh1			L_thigh2			L_thigh3			L_thigh4			r.ASIS			r.PSIS			L.ASIS			L.PSIS			C7			R_Shoulder			L_Shoulder			R_Sternum			L_Sternum			R_humerus			R_elbow_med			R_elbow_lat			R_forearm			R_wrist_radius			R_wrist_ulna			L_humerus			L_elbow_med			L_elbow_lat			L_forearm			L_wrist_radius			L_wrist_ulna			R_HJC			L_HJC			R_HJC_reg			L_HJC_reg			
		X1	Y1	Z1	X2	Y2	Z2	X3	Y3	Z3	X4	Y4	Z4	X5	Y5	Z5	X6	Y6	Z6	X7	Y7	Z7	X8	Y8	Z8	X9	Y9	Z9	X10	Y10	Z10	X11	Y11	Z11	X12	Y12	Z12	X13	Y13	Z13	X14	Y14	Z14	X15	Y15	Z15	X16	Y16	Z16	X17	Y17	Z17	X18	Y18	Z18	X19	Y19	Z19	X20	Y20	Z20	X21	Y21	Z21	X22	Y22	Z22	X23	Y23	Z23	X24	Y24	Z24	X25	Y25	Z25	X26	Y26	Z26	X27	Y27	Z27	X28	Y28	Z28	X29	Y29	Z29	X30	Y30	Z30	X31	Y31	Z31	X32	Y32	Z32	X33	Y33	Z33	X34	Y34	Z34	X35	Y35	Z35	X36	Y36	Z36	X37	Y37	Z37	X38	Y38	Z38	X39	Y39	Z39	X40	Y40	Z40	X41	Y41	Z41	X42	Y42	Z42	X43	Y43	Z43	X44	Y44	Z44	X45	Y45	Z45	X46	Y46	Z46	X47	Y47	Z47	X48	Y48	Z48	X49	Y49	Z49	X50	Y50	Z50	X51	Y51	Z51	X52	Y52	Z52	X53	Y53	Z53	X54	Y54	Z54	X55	Y55	Z55	

601	6.00000000	-218.66190	607.46779	-669.38484	-209.17987	464.91222	-661.05063	-286.82838	103.40327	-629.08325	-346.93379	72.23362	-689.33649	-151.54687	40.27808	-599.13927	-113.59589	64.78342	-652.92279	-241.29845	608.06335	-1112.68834	-206.73806	415.73096	-1121.62443	-294.82376	116.02056	-1160.26652	-349.98407	74.54561	-1102.37057	-150.75130	31.89335	-1194.62557	-112.41764	65.46832	-1136.36466	-240.20194	587.45510	-787.67555	-253.91360	128.52016	-727.50579	-233.60734	579.61852	-992.25224	-252.01526	125.48652	-1068.58749	-218.86377	351.78304	-654.13209	-271.65981	472.62766	-620.03378	-285.05847	362.04109	-605.12659	-278.09613	435.22683	-1169.18973	-293.63712	315.86431	-1168.95613	-138.05064	895.76490	-675.94377	-142.29119	786.01383	-669.58211	-205.54341	763.98040	-655.71911	-250.06717	901.57432	-692.14429	-255.02188	783.07568	-673.95244	-143.97990	893.94147	-1089.63002	-160.26186	761.67001	-1101.74033	-249.46329	913.21778	-1096.29724	-266.68172	775.88489	-1111.86786	-73.82422	1172.56451	-760.99509	-266.03671	1205.38426	-827.02726	-110.41387	1163.39614	-1032.85448	-277.78202	1208.03348	-918.57161	-271.94054	1679.75550	-891.32171	-186.58088	1660.79031	-719.74489	-225.43716	1666.68546	-1069.29953	-110.77390	1630.91812	-874.39570	-114.48825	1632.34933	-925.48560	-189.04280	1393.95883	-636.27662	-268.86023	1282.30538	-670.11272	-263.95082	1304.85243	-602.04057	-186.75896	1111.81488	-550.35205	-159.30792	1019.36831	-539.10817	-193.32247	1020.83418	-520.79914	-201.36659	1374.00565	-1135.92986	-278.59546	1294.54804	-1085.09916	-265.38648	1293.71419	-1159.03271	-185.80458	1107.65258	-1204.14477	-156.03824	1031.22236	-1203.99156	-185.24054	1032.11166	-1225.03426	-157.20205	1078.33387	-786.47883	-188.75361	1076.89025	-981.41311	-148.35124	1082.12714	-793.47864	-171.39416	1087.32454	-973.07797	
602	6.01000000	-218.60050	607.46534	-669.34517	-209.14578	464.91297	-661.09745	-286.84583	103.37713	-629.07456	-346.95179	72.23126	-689.34813	-151.54976	40.27073	-599.13168	-113.61557	64.78026	-652.93729	-241.28539	608.04508	-1112.65073	-206.73332	415.73635	-1121.62787	-294.82778	116.03061	-1160.26418	-349.99101	74.54657	-1102.39426	-150.75028	31.89525	-1194.62820	-112.41728	65.48323	-1136.37684	-240.19566	587.44817	-787.67680	-253.91298	128.53867	-727.48728	-233.60611	579.67495	-992.25186	-252.00131	125.52830	-1068.61693	-218.85937	351.79167	-654.11981	-271.65729	472.62544	-620.02671	-285.05873	362.04509	-605.12326	-278.09351	435.22687	-1169.18663	-293.64351	315.86041	-1168.95647	-138.06797	895.74900	-675.98643	-142.15490	785.92348	-669.64527	-205.53425	763.98089	-655.70211	-250.03283	901.56378	-692.18120	-255.01702	783.08878	-673.94843	-143.96129	893.95152	-1089.62557	-160.24283	761.66991	-1101.73292	-249.45826	913.20850	-1096.29605	-266.68049	775.89897	-1111.87074	-73.82297	1172.56704	-760.99626	-266.01299	1205.38201	-826.99817	-110.31364	1163.35217	-1032.77701	-277.77416	1208.03902	-918.59415	-271.95311	1679.73416	-891.26036	-186.58686	1660.77454	-719.75402	-225.47713	1666.69788	-1069.29664	-110.76256	1630.94307	-874.39883	-114.47811	1632.36073	-925.48528	-189.06018	1393.90985	-636.31234	-268.86945	1282.21633	-670.11742	-263.97068	1304.75276	-602.10765	-186.74073	1111.74516	-550.52570	-159.22327	1019.18328	-539.36817	-193.28891	1020.77643	-520.90498	-201.34125	1374.04575	-1135.99159	-278.57561	1294.57380	-1085.12362	-265.35430	1293.72821	-1159.03392	-185.70707	1107.71576	-1204.16149	-155.95001	1031.24159	-1203.97036	-185.14184	1032.13269	-1225.03035	-157.19866	1078.33819	-786.43527	-188.70400	1076.86608	-981.37677	-148.29566	1082.12647	-793.46910	-171.34884	1087.33440	-973.00722	
603	6.02000000	-218.50823	607.44260	-669.30097	-209.09798	464.91997	-661.11536	-286.82691	103.38906	-629.08820	-346.94149	72.23915	-689.32491	-151.57911	40.27017	-599.11409	-113.63106	64.78405	-652.94547	-241.28138	608.05093	-1112.63131	-206.74044	415.76290	-1121.62447	-294.84516	116.06101	-1160.25830	-349.99544	74.54632	-1102.40254	-150.74676	31.90257	-1194.63140	-112.41045	65.50647	-1136.36131	-240.20965	587.44159	-787.70688	-253.90981	128.58707	-727.47494	-233.60049	579.67630	-992.25051	-252.04313	125.54646	-1068.63214	-218.88067	351.77495	-654.10727	-271.64226	472.62284	-620.04297	-285.04516	362.05835	-605.12281	-278.09374	435.25510	-1169.21341	-293.63376	315.86081	-1168.96670	-138.12676	895.72525	-675.92321	-142.06521	785.86021	-669.69592	-205.47189	764.02047	-655.63142	-250.00404	901.55184	-692.18003	-255.01999	783.08536	-673.95720	-143.93289	893.97809	-1089.62094	-160.22170	761.67826	-1101.70706	-249.45029	913.20269	-1096.28970	-266.69279	775.93383	-1111.85850	-73.80756	1172.56478	-760.99377	-266.00465	1205.34449	-826.96513	-110.20068	1163.31508	-1032.67710	-277.76305	1208.04753	-918.61240	-271.95185	1679.70378	-891.20578	-186.60847	1660.77566	-719.72664	-225.50405	1666.71037	-1069.26377	-110.75278	1630.95406	-874.38989	-114.47120	1632.37323	-925.47822	-189.06843	1393.87543	-636.32370	-268.94728	1282.15653	-670.17186	-263.93706	1304.71076	-602.14864	-186.70510	1111.63160	-550.70439	-159.10263	1019.02105	-539.58747	-193.23475	1020.72868	-521.05280	-201.32598	1374.01778	-1135.88026	-278.56188	1294.60262	-1085.16257	-265.32239	1293.73019	-1159.00267	-185.59190	1107.80343	-1204.16501	-155.84927	1031.27475	-1203.95628	-185.03404	1032.15785	-1225.02187	-157.18450	1078.32903	-786.39149	-188.63628	1076.84192	-981.34151	-148.22208	1082.06603	-793.50374	-171.24783	1087.35917	-972.97078	
604	6.03000000	-218.41885	607.45577	-669.25240	-209.07715	464.94879	-661.09537	-286.80621	103.41966	-629.10180	-346.92150	72.25887	-689.28634	-151.60185	40.26943	-599.10429	-113.61627	64.80047	-652.90770	-241.28203	608.06539	-1112.63326	-206.75259	415.80938	-1121.60791	-294.86540	116.10156	-1160.24643	-349.99499	74.54943	-1102.39258	-150.74268	31.92660	-1194.61865	-112.40588	65.52807	-1136.34697	-240.20643	587.44197	-787.70047	-253.88125	128.64038	-727.46872	-233.56790	579.63034	-992.24478	-252.07826	125.53090	-1068.61803	-218.93478	351.76368	-654.05267	-271.65978	472.61489	-620.05277	-285.05508	362.04264	-605.13483	-278.08477	435.28414	-1169.21978	-293.59671	315.87298	-1168.94582	-138.19519	895.76173	-675.80651	-142.07632	785.86457	-669.68885	-205.43730	764.04849	-655.59670	-249.98561	901.57563	-692.17533	-255.03209	783.06957	-673.96129	-143.90194	894.00938	-1089.60489	-160.21180	761.69332	-1101.68410	-249.44639	913.20239	-1096.28474	-266.70355	775.96017	-1111.84406	-73.78863	1172.55747	-760.98633	-265.99446	1205.32878	-826.96640	-110.23768	1163.36065	-1032.71843	-277.74418	1208.05317	-918.60929	-271.94307	1679.70540	-891.18180	-186.62423	1660.76585	-719.69873	-225.50977	1666.72874	-1069.21793	-110.75669	1630.94680	-874.37892	-114.44979	1632.40057	-925.48842	-189.07212	1393.84911	-636.35480	-269.04530	1282.13938	-670.25911	-263.89447	1304.69163	-602.19845	-186.67292	1111.54826	-550.83105	-159.02530	1018.95982	-539.75710	-193.18846	1020.65617	-521.22698	-201.30262	1374.00039	-1135.76644	-278.54384	1294.59359	-1085.16286	-265.29116	1293.73342	-1159.00380	-185.47067	1107.85883	-1204.15970	-155.73504	1031.32517	-1203.93505	-184.91201	1032.18679	-1224.99496	-157.16203	1078.31755	-786.42497	-188.63680	1076.86844	-981.37158	-148.22309	1082.03382	-793.53080	-171.23758	1087.37004	-973.03391	
